<svg width="703" height="170" viewBox="0 0 703 170" fill="none" xmlns="http://www.w3.org/2000/svg">
<path d="M247.332 104.504H267.427V118.986H229.348V50.9223H247.332V104.504Z" fill="#2D2D2D"/>
<path d="M297.91 50.9223V118.986H279.925V50.9223L297.91 50.9223Z" fill="#2D2D2D"/>
<path d="M373.574 118.986L355.59 118.986L331.641 80.9476V118.986H313.657V50.9223H331.641L355.59 89.4434V50.9223H373.574V118.986Z" fill="#2D2D2D"/>
<path d="M420.338 119.662C414.282 119.662 408.716 118.181 403.638 115.221C398.561 112.196 394.524 108.044 391.526 102.767C388.59 97.4244 387.122 91.4065 387.122 84.7128C387.122 78.0191 388.59 72.0333 391.526 66.7556C394.524 61.4135 398.561 57.2621 403.638 54.3014C408.716 51.3407 414.282 49.8604 420.338 49.8604C426.455 49.8604 432.022 51.3407 437.038 54.3014C442.115 57.2621 446.122 61.4135 449.058 66.7556C451.994 72.0333 453.463 78.0191 453.463 84.7128C453.463 91.4065 451.994 97.4244 449.058 102.767C446.122 108.044 442.115 112.196 437.038 115.221C431.961 118.181 426.394 119.662 420.338 119.662ZM420.338 102.091C424.926 102.091 428.535 100.514 431.166 97.3601C433.857 94.2063 435.203 89.9905 435.203 84.7128C435.203 79.3063 433.857 75.0584 431.166 71.969C428.535 68.8152 424.926 67.2383 420.338 67.2383C415.689 67.2383 412.049 68.8152 409.419 71.969C406.789 75.0584 405.474 79.3063 405.474 84.7128C405.474 90.0549 406.789 94.3028 409.419 97.4566C412.049 100.546 415.689 102.091 420.338 102.091Z" fill="#2D2D2D"/>
<path d="M515.776 50.9223V65.9832H498.525V118.986H480.541V65.9832H463.474V50.9223L515.776 50.9223Z" fill="#2D2D2D"/>
<path d="M586.751 50.9223L563.996 97.3601V118.986H545.92V97.3601L523.164 50.9223H543.717L555.095 77.1823L566.473 50.9223H586.751Z" fill="#2D2D2D"/>
<path d="M648.887 73.6102C648.887 77.7294 647.969 81.4946 646.134 84.9059C644.36 88.2527 641.638 90.956 637.968 93.0156C634.359 95.0108 629.924 96.0084 624.663 96.0084H615.763V118.986H597.778V50.9223L624.663 50.9223C629.863 50.9223 634.267 51.8878 637.876 53.8187C641.546 55.7495 644.299 58.4206 646.134 61.8318C647.969 65.243 648.887 69.1692 648.887 73.6102ZM622.92 80.9476C627.997 80.9476 630.535 78.5018 630.535 73.6102C630.535 68.6543 627.997 66.1763 622.92 66.1763H615.763V80.9476H622.92Z" fill="#2D2D2D"/>
<path d="M679.602 66.0798V77.1823H700.247V91.5674L679.602 91.5674V103.829L703 103.829V118.986H661.617V50.9223L703 50.9223V66.0798H679.602Z" fill="#2D2D2D"/>
<path fill-rule="evenodd" clip-rule="evenodd" d="M-7.40986e-06 -0.000213623L0 169.518L169.518 169.518L169.518 -0.000221033L-7.40986e-06 -0.000213623ZM49.8581 49.858L49.8581 119.659L119.66 119.659L119.66 49.858L49.8581 49.858Z" fill="#5C5EDB"/>
</svg>
